<?xml version="1.0" encoding="utf-8"?>
<svg version="1.1" preserveAspectRatio="xMidYMid meet" viewBox="0 0 640 640" width="640" height="640" xmlns="http://www.w3.org/2000/svg">
  <defs>
    <path d="M238.92 -26.98L427.18 -26.98L427.18 149.49L238.92 149.49L238.92 -26.98Z" id="bewmFtIWK"/>
    <path d="M365.47 58.05C365.47 87.5 341.56 111.41 312.11 111.41C282.66 111.41 258.75 87.5 258.75 58.05C258.75 28.6 282.66 4.69 312.11 4.69C341.56 4.69 365.47 28.6 365.47 58.05Z" id="b4oxrDbrsA"/>
    <path d="M408.61 56.73C408.61 86.18 384.7 110.09 355.25 110.09C325.8 110.09 301.89 86.18 301.89 56.73C301.89 27.28 325.8 3.37 355.25 3.37C384.7 3.37 408.61 27.28 408.61 56.73Z" id="c1KHyOftHG"/>
    <path d="M141.99 417.04L375.6 417.04L375.6 610.83L141.99 610.83L141.99 417.04Z" id="aUxYztSQn"/>
    <path d="M313.27 476.18C313.27 495.73 297.4 511.61 277.84 511.61C258.28 511.61 242.41 495.73 242.41 476.18C242.41 456.62 258.28 440.74 277.84 440.74C297.4 440.74 313.27 456.62 313.27 476.18Z" id="a2toUcKTFT"/>
    <path d="M341.93 475.3C341.93 494.86 326.05 510.73 306.49 510.73C286.93 510.73 271.06 494.86 271.06 475.3C271.06 455.74 286.93 439.87 306.49 439.87C326.05 439.87 341.93 455.74 341.93 475.3Z" id="e2prxPyfVG"/>
    <text id="atXDgi4Cm" x="-7.32" y="711.58" font-size="33" font-family="Open Sans" font-weight="normal" font-style="normal" letter-spacing="0" alignment-baseline="before-edge" transform="matrix(1 0 0 1 171.293916904954 -209.1923010177396)" style="line-height: 100%; white-space: pre;" dominant-baseline="text-before-edge"><tspan x="-7.32" dy="0em" alignment-baseline="before-edge" dominant-baseline="text-before-edge" text-anchor="start">ImplicitPay</tspan></text>
    <text id="a6UaHZKAcV" x="297.96" y="539.92" font-size="33" font-family="Open Sans" font-weight="700" font-style="normal" letter-spacing="0" alignment-baseline="before-edge" transform="matrix(1 0 0 1 -13.171011418720624 -1.6915804347697758)" style="line-height: 100%; white-space: pre;" dominant-baseline="text-before-edge"><tspan x="297.96" dy="0em" alignment-baseline="before-edge" dominant-baseline="text-before-edge" text-anchor="start">CO</tspan></text>
    <text id="c6w011awdk" x="320" y="239.92" font-size="132" font-family="Poiret One" font-weight="700" font-style="normal" letter-spacing="0" alignment-baseline="before-edge" transform="matrix(1 0 0 1 16.9058055836865 203.908468958955)" style="line-height: 100%; white-space: pre;" dominant-baseline="text-before-edge"><tspan x="320" dy="0em" alignment-baseline="before-edge" dominant-baseline="text-before-edge" text-anchor="start">|</tspan></text>
    <path d="M176.52 193.74L410.14 193.74L410.14 387.53L176.52 387.53L176.52 193.74Z" id="a12uO8TNbq"/>
    <path d="M347.81 252.88C347.81 272.44 331.93 288.31 312.37 288.31C292.82 288.31 276.94 272.44 276.94 252.88C276.94 233.32 292.82 217.44 312.37 217.44C331.93 217.44 347.81 233.32 347.81 252.88Z" id="e2KA50RcB"/>
    <path d="M376.46 252C376.46 271.56 360.58 287.44 341.02 287.44C321.47 287.44 305.59 271.56 305.59 252C305.59 232.44 321.47 216.57 341.02 216.57C360.58 216.57 376.46 232.44 376.46 252Z" id="a4ENxMPif8"/>
    <text id="d2EoAOhtBp" x="-7.32" y="711.58" font-size="33" font-family="Open Sans" font-weight="normal" font-style="normal" letter-spacing="0" alignment-baseline="before-edge" transform="matrix(1 0 0 1 205.82722765313721 -432.4912700899049)" style="line-height: 100%; white-space: pre;" dominant-baseline="text-before-edge"><tspan x="-7.32" dy="0em" alignment-baseline="before-edge" dominant-baseline="text-before-edge" text-anchor="start">ImplicitPay</tspan></text>
    <text id="b4DkVxJgjr" x="297.96" y="539.92" font-size="33" font-family="Open Sans" font-weight="700" font-style="normal" letter-spacing="0" alignment-baseline="before-edge" transform="matrix(1 0 0 1 21.362299329462545 -224.99054950693505)" style="line-height: 100%; white-space: pre;" dominant-baseline="text-before-edge"><tspan x="297.96" dy="0em" alignment-baseline="before-edge" dominant-baseline="text-before-edge" text-anchor="start">CO</tspan></text>
    <text id="a40lzStSTU" x="320" y="239.92" font-size="132" font-family="Poiret One" font-weight="700" font-style="normal" letter-spacing="0" alignment-baseline="before-edge" transform="matrix(1 0 0 1 51.439116331869684 -19.390500113210265)" style="line-height: 100%; white-space: pre;" dominant-baseline="text-before-edge"><tspan x="320" dy="0em" alignment-baseline="before-edge" dominant-baseline="text-before-edge" text-anchor="start">|</tspan></text>
  </defs>
  <g>
    <g>
      <g>
        <g transform="matrix(2.698419, 0, 0, 2.698419, -487.46418, -907.12953)">
          <path d="M313.27 476.18C313.27 495.73 297.4 511.61 277.84 511.61C258.28 511.61 242.41 495.73 242.41 476.18C242.41 456.62 258.28 440.74 277.84 440.74C297.4 440.74 313.27 456.62 313.27 476.18Z" opacity="1" fill="#4ebbc7" fill-opacity="0.79"/>
        </g>
        <g transform="matrix(2.698419, 0, 0, 2.698419, -487.46418, -907.12953)">
          <path d="M341.93 475.3C341.93 494.86 326.05 510.73 306.49 510.73C286.93 510.73 271.06 494.86 271.06 475.3C271.06 455.74 286.93 439.87 306.49 439.87C326.05 439.87 341.93 455.74 341.93 475.3Z" opacity="1" fill="#75dce8" fill-opacity="0.71"/>
        </g>
        <text x="60.576" y="297.43" font-size="33" font-family="Open Sans" font-weight="normal" font-style="normal" letter-spacing="0" alignment-baseline="before-edge" style="line-height: 100%; white-space: pre;" dominant-baseline="text-before-edge" opacity="1" fill="#0c0c0b" fill-opacity="1"><tspan x="60.576" dy="0em" alignment-baseline="before-edge" dominant-baseline="text-before-edge" text-anchor="start" style="font-size: 89px; word-spacing: 0px;">ImplicitPay</tspan></text>
        <text x="391.982" y="372.554" font-size="33" font-family="Open Sans" font-weight="700" font-style="normal" letter-spacing="0" alignment-baseline="before-edge" style="line-height: 100%; white-space: pre;" dominant-baseline="text-before-edge" opacity="1" fill="#060606" fill-opacity="1"><tspan x="391.982" dy="0em" alignment-baseline="before-edge" dominant-baseline="text-before-edge" text-anchor="start" style="font-size: 89px; word-spacing: 0px;">CO</tspan></text>
      </g>
    </g>
  </g>
</svg>